<svg xmlns="http://www.w3.org/2000/svg" xmlns:xlink="http://www.w3.org/1999/xlink" width="2719pt" height="671pt" viewBox="0.00 0.00 2719.00 671.20">
<g id="graph0" class="graph" transform="scale(1 1) rotate(0) translate(4 667.2)">
<polygon fill="white" stroke="none" points="-4,4 -4,-667.2 2715,-667.2 2715,4 -4,4"/>
<g id="clust1" class="cluster">
<title>cluster_evolution</title>
<polygon fill="none" stroke="black" points="1035,-164.8 1035,-619.2 1291,-619.2 1291,-164.8 1035,-164.8"/>
<text text-anchor="middle" x="1163" y="-602.6" font-family="Times,serif" font-size="14.00">1. Эволюция LLM</text>
</g>
<g id="clust2" class="cluster">
<title>cluster_classes</title>
<polygon fill="none" stroke="black" points="663,-326.4 663,-619.2 1027,-619.2 1027,-326.4 663,-326.4"/>
<text text-anchor="middle" x="845" y="-602.6" font-family="Times,serif" font-size="14.00">2. Классификация моделей</text>
</g>
<g id="clust3" class="cluster">
<title>cluster_react</title>
<polygon fill="none" stroke="black" points="2253,-164.8 2253,-318.4 2703,-318.4 2703,-164.8 2253,-164.8"/>
<text text-anchor="middle" x="2478" y="-301.8" font-family="Times,serif" font-size="14.00">3. ReAct / Agentic Thinking</text>
</g>
<g id="clust4" class="cluster">
<title>cluster_problems</title>
<polygon fill="none" stroke="black" points="1299,-80 1299,-241.6 2245,-241.6 2245,-80 1299,-80"/>
<text text-anchor="middle" x="1772" y="-225" font-family="Times,serif" font-size="14.00">4. Проблемы и иллюзии</text>
</g>
<g id="clust5" class="cluster">
<title>cluster_hybrid</title>
<polygon fill="none" stroke="black" points="8,-8 8,-156.8 1291,-156.8 1291,-8 8,-8"/>
<text text-anchor="middle" x="649.5" y="-140.2" font-family="Times,serif" font-size="14.00">5. Саморазвивающиеся гибридные системы</text>
</g>
<!-- Эволюция мышления LLM&#45;агентов -->
<g id="node1" class="node">
<title>Эволюция мышления LLM-агентов</title>
<ellipse fill="none" stroke="black" cx="1167" cy="-645.2" rx="150.52" ry="18"/>
<text text-anchor="middle" x="1167" y="-641" font-family="Times,serif" font-size="14.00">Эволюция мышления LLM-агентов</text>
</g>
<!-- Next token prediction -->
<g id="node2" class="node">
<title>Next token prediction</title>
<ellipse fill="none" stroke="black" cx="1167" cy="-568.4" rx="95.24" ry="18"/>
<text text-anchor="middle" x="1167" y="-564.2" font-family="Times,serif" font-size="14.00">Next token prediction</text>
</g>
<!-- Эволюция мышления LLM&#45;агентов&#45;&gt;Next token prediction -->
<g id="edge26" class="edge">
<title>Эволюция мышления LLM-агентов-&gt;Next token prediction</title>
<path fill="none" stroke="black" d="M1167,-626.85C1167,-618.26 1167,-607.67 1167,-597.92"/>
<polygon fill="black" stroke="black" points="1170.5,-598.17 1167,-588.17 1163.5,-598.17 1170.5,-598.17"/>
</g>
<!-- Классические LLM -->
<g id="node8" class="node">
<title>Классические LLM</title>
<ellipse fill="none" stroke="black" cx="900" cy="-568.4" rx="91.78" ry="18"/>
<text text-anchor="middle" x="900" y="-564.2" font-family="Times,serif" font-size="14.00">Классические LLM</text>
</g>
<!-- Эволюция мышления LLM&#45;агентов&#45;&gt;Классические LLM -->
<g id="edge27" class="edge">
<title>Эволюция мышления LLM-агентов-&gt;Классические LLM</title>
<path fill="none" stroke="black" d="M1078.31,-630.3C1062.44,-627.14 1046.14,-623.43 1031,-619.2 1002.52,-611.24 971.57,-599.62 946.9,-589.6"/>
<polygon fill="black" stroke="black" points="948.37,-586.42 937.79,-585.85 945.7,-592.89 948.37,-586.42"/>
</g>
<!-- ReAct: Reasoning + Acting -->
<g id="node12" class="node">
<title>ReAct: Reasoning + Acting</title>
<ellipse fill="none" stroke="black" cx="2379" cy="-267.6" rx="118.13" ry="18"/>
<text text-anchor="middle" x="2379" y="-263.4" font-family="Times,serif" font-size="14.00">ReAct: Reasoning + Acting</text>
</g>
<!-- Эволюция мышления LLM&#45;агентов&#45;&gt;ReAct: Reasoning + Acting -->
<g id="edge28" class="edge">
<title>Эволюция мышления LLM-агентов-&gt;ReAct: Reasoning + Acting</title>
<path fill="none" stroke="black" d="M1317.85,-644.39C1534.5,-640.53 1908,-616.58 1908,-497.4 1908,-497.4 1908,-497.4 1908,-423.4 1908,-346.2 2139.28,-301.18 2277.71,-281.15"/>
<polygon fill="black" stroke="black" points="2277.84,-284.67 2287.25,-279.79 2276.85,-277.74 2277.84,-284.67"/>
</g>
<!-- Aha Moment — Иллюзия? -->
<g id="node16" class="node">
<title>Aha Moment — Иллюзия?</title>
<ellipse fill="none" stroke="black" cx="1419" cy="-190.8" rx="112.42" ry="18"/>
<text text-anchor="middle" x="1419" y="-186.6" font-family="Times,serif" font-size="14.00">Aha Moment — Иллюзия?</text>
</g>
<!-- Эволюция мышления LLM&#45;агентов&#45;&gt;Aha Moment — Иллюзия? -->
<g id="edge29" class="edge">
<title>Эволюция мышления LLM-агентов-&gt;Aha Moment — Иллюзия?</title>
<path fill="none" stroke="black" d="M1267.26,-631.5C1276.97,-628.26 1286.4,-624.22 1295,-619.2 1356.47,-583.31 1399,-568.58 1399,-497.4 1399,-497.4 1399,-497.4 1399,-351.4 1399,-305.1 1407.39,-251.82 1413.3,-220.03"/>
<polygon fill="black" stroke="black" points="1416.7,-220.92 1415.14,-210.44 1409.82,-219.6 1416.7,-220.92"/>
</g>
<!-- AlphaEvolve -->
<g id="node22" class="node">
<title>AlphaEvolve</title>
<ellipse fill="none" stroke="black" cx="631" cy="-106" rx="61.99" ry="18"/>
<text text-anchor="middle" x="631" y="-101.8" font-family="Times,serif" font-size="14.00">AlphaEvolve</text>
</g>
<!-- Эволюция мышления LLM&#45;агентов&#45;&gt;AlphaEvolve -->
<g id="edge30" class="edge">
<title>Эволюция мышления LLM-агентов-&gt;AlphaEvolve</title>
<path fill="none" stroke="black" d="M1019.27,-641.38C874.15,-637.94 672.5,-631.05 659,-619.2 617.67,-582.9 637,-552.41 637,-497.4 637,-497.4 637,-497.4 637,-266.6 637,-220.62 634.48,-167.25 632.71,-135.35"/>
<polygon fill="black" stroke="black" points="636.23,-135.53 632.16,-125.74 629.24,-135.93 636.23,-135.53"/>
</g>
<!-- Scaling Pretraining -->
<g id="node3" class="node">
<title>Scaling Pretraining</title>
<ellipse fill="none" stroke="black" cx="1167" cy="-496.4" rx="85.33" ry="18"/>
<text text-anchor="middle" x="1167" y="-492.2" font-family="Times,serif" font-size="14.00">Scaling Pretraining</text>
</g>
<!-- Next token prediction&#45;&gt;Scaling Pretraining -->
<g id="edge1" class="edge">
<title>Next token prediction-&gt;Scaling Pretraining</title>
<path fill="none" stroke="black" d="M1167,-550.1C1167,-542.81 1167,-534.13 1167,-525.94"/>
<polygon fill="black" stroke="black" points="1170.5,-526.02 1167,-516.02 1163.5,-526.02 1170.5,-526.02"/>
</g>
<!-- Post&#45;training (SFT, RLHF) -->
<g id="node4" class="node">
<title>Post-training (SFT, RLHF)</title>
<ellipse fill="none" stroke="black" cx="1167" cy="-424.4" rx="115.93" ry="18"/>
<text text-anchor="middle" x="1167" y="-420.2" font-family="Times,serif" font-size="14.00">Post-training (SFT, RLHF)</text>
</g>
<!-- Scaling Pretraining&#45;&gt;Post&#45;training (SFT, RLHF) -->
<g id="edge2" class="edge">
<title>Scaling Pretraining-&gt;Post-training (SFT, RLHF)</title>
<path fill="none" stroke="black" d="M1167,-478.1C1167,-470.81 1167,-462.13 1167,-453.94"/>
<polygon fill="black" stroke="black" points="1170.5,-454.02 1167,-444.02 1163.5,-454.02 1170.5,-454.02"/>
</g>
<!-- Agentic Workflows -->
<g id="node5" class="node">
<title>Agentic Workflows</title>
<ellipse fill="none" stroke="black" cx="1196" cy="-352.4" rx="87.47" ry="18"/>
<text text-anchor="middle" x="1196" y="-348.2" font-family="Times,serif" font-size="14.00">Agentic Workflows</text>
</g>
<!-- Post&#45;training (SFT, RLHF)&#45;&gt;Agentic Workflows -->
<g id="edge3" class="edge">
<title>Post-training (SFT, RLHF)-&gt;Agentic Workflows</title>
<path fill="none" stroke="black" d="M1174.17,-406.1C1177.29,-398.55 1181.04,-389.52 1184.53,-381.08"/>
<polygon fill="black" stroke="black" points="1187.74,-382.48 1188.33,-371.9 1181.27,-379.8 1187.74,-382.48"/>
</g>
<!-- LLM&#45;based AGI? -->
<g id="node6" class="node">
<title>LLM-based AGI?</title>
<ellipse fill="none" stroke="black" cx="1196" cy="-267.6" rx="80.49" ry="18"/>
<text text-anchor="middle" x="1196" y="-263.4" font-family="Times,serif" font-size="14.00">LLM-based AGI?</text>
</g>
<!-- Agentic Workflows&#45;&gt;LLM&#45;based AGI? -->
<g id="edge4" class="edge">
<title>Agentic Workflows-&gt;LLM-based AGI?</title>
<path fill="none" stroke="black" d="M1196,-334.24C1196,-323.55 1196,-309.52 1196,-297.17"/>
<polygon fill="black" stroke="black" points="1199.5,-297.53 1196,-287.53 1192.5,-297.53 1199.5,-297.53"/>
</g>
<!-- Agentic Workflows&#45;&gt;ReAct: Reasoning + Acting -->
<g id="edge9" class="edge">
<title>Agentic Workflows-&gt;ReAct: Reasoning + Acting</title>
<path fill="none" stroke="black" d="M1277.78,-345.68C1483.58,-331.27 2023.52,-293.48 2262.42,-276.76"/>
<polygon fill="black" stroke="black" points="2262.32,-280.28 2272.05,-276.09 2261.83,-273.29 2262.32,-280.28"/>
</g>
<!-- Артефакты бенчмарков -->
<g id="node20" class="node">
<title>Артефакты бенчмарков</title>
<ellipse fill="none" stroke="black" cx="1893" cy="-190.8" rx="105.19" ry="18"/>
<text text-anchor="middle" x="1893" y="-186.6" font-family="Times,serif" font-size="14.00">Артефакты бенчмарков</text>
</g>
<!-- Agentic Workflows&#45;&gt;Артефакты бенчмарков -->
<g id="edge17" class="edge">
<title>Agentic Workflows-&gt;Артефакты бенчмарков</title>
<path fill="none" stroke="black" d="M1253.04,-338.34C1379.18,-309.45 1681.65,-240.2 1820.76,-208.34"/>
<polygon fill="black" stroke="black" points="1821.26,-211.82 1830.22,-206.18 1819.69,-205 1821.26,-211.82"/>
</g>
<!-- ASI? Self&#45;evolving Systems -->
<g id="node7" class="node">
<title>ASI? Self-evolving Systems</title>
<ellipse fill="none" stroke="black" cx="1163" cy="-190.8" rx="120.47" ry="18"/>
<text text-anchor="middle" x="1163" y="-186.6" font-family="Times,serif" font-size="14.00">ASI? Self-evolving Systems</text>
</g>
<!-- LLM&#45;based AGI?&#45;&gt;ASI? Self&#45;evolving Systems -->
<g id="edge5" class="edge">
<title>LLM-based AGI?-&gt;ASI? Self-evolving Systems</title>
<path fill="none" stroke="black" d="M1188.35,-249.25C1184.43,-240.38 1179.57,-229.36 1175.16,-219.36"/>
<polygon fill="black" stroke="black" points="1178.46,-218.18 1171.22,-210.44 1172.06,-221 1178.46,-218.18"/>
</g>
<!-- LLM&#45;based AGI?&#45;&gt;Aha Moment — Иллюзия? -->
<g id="edge13" class="edge">
<title>LLM-based AGI?-&gt;Aha Moment — Иллюзия?</title>
<path fill="none" stroke="black" d="M1251.1,-254.08C1265.5,-250.43 1280.92,-246.18 1295,-241.6 1320.71,-233.23 1348.71,-222.16 1371.59,-212.59"/>
<polygon fill="black" stroke="black" points="1372.8,-215.87 1380.65,-208.75 1370.07,-209.43 1372.8,-215.87"/>
</g>
<!-- ASI? Self&#45;evolving Systems&#45;&gt;AlphaEvolve -->
<g id="edge19" class="edge">
<title>ASI? Self-evolving Systems-&gt;AlphaEvolve</title>
<path fill="none" stroke="black" d="M1081.62,-177.13C975.79,-160.66 793.01,-132.21 695.95,-117.11"/>
<polygon fill="black" stroke="black" points="696.75,-113.69 686.33,-115.61 695.67,-120.61 696.75,-113.69"/>
</g>
<!-- Darwin Godel Machine -->
<g id="node23" class="node">
<title>Darwin Godel Machine</title>
<ellipse fill="none" stroke="black" cx="1151" cy="-106" rx="102.21" ry="18"/>
<text text-anchor="middle" x="1151" y="-101.8" font-family="Times,serif" font-size="14.00">Darwin Godel Machine</text>
</g>
<!-- ASI? Self&#45;evolving Systems&#45;&gt;Darwin Godel Machine -->
<g id="edge20" class="edge">
<title>ASI? Self-evolving Systems-&gt;Darwin Godel Machine</title>
<path fill="none" stroke="black" d="M1160.51,-172.64C1158.96,-161.95 1156.93,-147.92 1155.14,-135.57"/>
<polygon fill="black" stroke="black" points="1158.64,-135.31 1153.74,-125.92 1151.71,-136.32 1158.64,-135.31"/>
</g>
<!-- RL&#45;оптимизированные модели -->
<g id="node9" class="node">
<title>RL-оптимизированные модели</title>
<ellipse fill="none" stroke="black" cx="874" cy="-496.4" rx="135.23" ry="18"/>
<text text-anchor="middle" x="874" y="-492.2" font-family="Times,serif" font-size="14.00">RL-оптимизированные модели</text>
</g>
<!-- Классические LLM&#45;&gt;RL&#45;оптимизированные модели -->
<g id="edge6" class="edge">
<title>Классические LLM-&gt;RL-оптимизированные модели</title>
<path fill="none" stroke="black" d="M893.57,-550.1C890.77,-542.55 887.42,-533.52 884.28,-525.08"/>
<polygon fill="black" stroke="black" points="887.64,-524.08 880.88,-515.92 881.08,-526.52 887.64,-524.08"/>
</g>
<!-- Рассуждающие модели (LRM) -->
<g id="node10" class="node">
<title>Рассуждающие модели (LRM)</title>
<ellipse fill="none" stroke="black" cx="855" cy="-424.4" rx="130.14" ry="18"/>
<text text-anchor="middle" x="855" y="-420.2" font-family="Times,serif" font-size="14.00">Рассуждающие модели (LRM)</text>
</g>
<!-- RL&#45;оптимизированные модели&#45;&gt;Рассуждающие модели (LRM) -->
<g id="edge7" class="edge">
<title>RL-оптимизированные модели-&gt;Рассуждающие модели (LRM)</title>
<path fill="none" stroke="black" d="M869.3,-478.1C867.28,-470.64 864.86,-461.72 862.59,-453.37"/>
<polygon fill="black" stroke="black" points="866.04,-452.7 860.04,-443.97 859.28,-454.53 866.04,-452.7"/>
</g>
<!-- Саморазвивающиеся системы (AGI/ASI) -->
<g id="node11" class="node">
<title>Саморазвивающиеся системы (AGI/ASI)</title>
<ellipse fill="none" stroke="black" cx="845" cy="-352.4" rx="173.59" ry="18"/>
<text text-anchor="middle" x="845" y="-348.2" font-family="Times,serif" font-size="14.00">Саморазвивающиеся системы (AGI/ASI)</text>
</g>
<!-- Рассуждающие модели (LRM)&#45;&gt;Саморазвивающиеся системы (AGI/ASI) -->
<g id="edge8" class="edge">
<title>Рассуждающие модели (LRM)-&gt;Саморазвивающиеся системы (AGI/ASI)</title>
<path fill="none" stroke="black" d="M852.53,-406.1C851.47,-398.72 850.22,-389.92 849.04,-381.65"/>
<polygon fill="black" stroke="black" points="852.54,-381.41 847.66,-372 845.61,-382.4 852.54,-381.41"/>
</g>
<!-- Reasoning Step -->
<g id="node13" class="node">
<title>Reasoning Step</title>
<ellipse fill="none" stroke="black" cx="2492" cy="-190.8" rx="71.39" ry="18"/>
<text text-anchor="middle" x="2492" y="-186.6" font-family="Times,serif" font-size="14.00">Reasoning Step</text>
</g>
<!-- ReAct: Reasoning + Acting&#45;&gt;Reasoning Step -->
<g id="edge10" class="edge">
<title>ReAct: Reasoning + Acting-&gt;Reasoning Step</title>
<path fill="none" stroke="black" d="M2404.64,-249.63C2420.57,-239.08 2441.23,-225.41 2458.46,-214"/>
<polygon fill="black" stroke="black" points="2459.95,-217.21 2466.36,-208.77 2456.09,-211.37 2459.95,-217.21"/>
</g>
<!-- Action Step -->
<g id="node14" class="node">
<title>Action Step</title>
<ellipse fill="none" stroke="black" cx="2638" cy="-190.8" rx="56.9" ry="18"/>
<text text-anchor="middle" x="2638" y="-186.6" font-family="Times,serif" font-size="14.00">Action Step</text>
</g>
<!-- ReAct: Reasoning + Acting&#45;&gt;Action Step -->
<g id="edge11" class="edge">
<title>ReAct: Reasoning + Acting-&gt;Action Step</title>
<path fill="none" stroke="black" d="M2491.75,-261.89C2518.74,-258.09 2546.98,-251.82 2572,-241.6 2586.79,-235.56 2601.19,-225.37 2612.74,-215.77"/>
<polygon fill="black" stroke="black" points="2614.96,-218.48 2620.21,-209.28 2610.37,-213.2 2614.96,-218.48"/>
</g>
<!-- Feedback Loop -->
<g id="node15" class="node">
<title>Feedback Loop</title>
<ellipse fill="none" stroke="black" cx="2332" cy="-190.8" rx="70.84" ry="18"/>
<text text-anchor="middle" x="2332" y="-186.6" font-family="Times,serif" font-size="14.00">Feedback Loop</text>
</g>
<!-- ReAct: Reasoning + Acting&#45;&gt;Feedback Loop -->
<g id="edge12" class="edge">
<title>ReAct: Reasoning + Acting-&gt;Feedback Loop</title>
<path fill="none" stroke="black" d="M2368.1,-249.25C2362.4,-240.19 2355.31,-228.89 2348.92,-218.73"/>
<polygon fill="black" stroke="black" points="2351.93,-216.94 2343.65,-210.34 2346,-220.67 2351.93,-216.94"/>
</g>
<!-- Артефакты обучения -->
<g id="node17" class="node">
<title>Артефакты обучения</title>
<ellipse fill="none" stroke="black" cx="1922" cy="-106" rx="95.53" ry="18"/>
<text text-anchor="middle" x="1922" y="-101.8" font-family="Times,serif" font-size="14.00">Артефакты обучения</text>
</g>
<!-- Aha Moment — Иллюзия?&#45;&gt;Артефакты обучения -->
<g id="edge14" class="edge">
<title>Aha Moment — Иллюзия?-&gt;Артефакты обучения</title>
<path fill="none" stroke="black" d="M1526.54,-185.23C1625.34,-180.24 1764.19,-171.01 1817,-156.8 1840.29,-150.54 1864.72,-139.27 1884.15,-129.03"/>
<polygon fill="black" stroke="black" points="1885.64,-132.2 1892.77,-124.37 1882.31,-126.04 1885.64,-132.2"/>
</g>
<!-- Подтасовка примеров -->
<g id="node18" class="node">
<title>Подтасовка примеров</title>
<ellipse fill="none" stroke="black" cx="1407" cy="-106" rx="100.36" ry="18"/>
<text text-anchor="middle" x="1407" y="-101.8" font-family="Times,serif" font-size="14.00">Подтасовка примеров</text>
</g>
<!-- Aha Moment — Иллюзия?&#45;&gt;Подтасовка примеров -->
<g id="edge15" class="edge">
<title>Aha Moment — Иллюзия?-&gt;Подтасовка примеров</title>
<path fill="none" stroke="black" d="M1416.51,-172.64C1414.96,-161.95 1412.93,-147.92 1411.14,-135.57"/>
<polygon fill="black" stroke="black" points="1414.64,-135.31 1409.74,-125.92 1407.71,-136.32 1414.64,-135.31"/>
</g>
<!-- Бенчмарки поощряют краткость -->
<g id="node19" class="node">
<title>Бенчмарки поощряют краткость</title>
<ellipse fill="none" stroke="black" cx="1667" cy="-106" rx="141.41" ry="18"/>
<text text-anchor="middle" x="1667" y="-101.8" font-family="Times,serif" font-size="14.00">Бенчмарки поощряют краткость</text>
</g>
<!-- Aha Moment — Иллюзия?&#45;&gt;Бенчмарки поощряют краткость -->
<g id="edge16" class="edge">
<title>Aha Moment — Иллюзия?-&gt;Бенчмарки поощряют краткость</title>
<path fill="none" stroke="black" d="M1466.23,-174.03C1506.39,-160.62 1564.27,-141.3 1607.57,-126.84"/>
<polygon fill="black" stroke="black" points="1608.44,-130.24 1616.81,-123.76 1606.22,-123.6 1608.44,-130.24"/>
</g>
<!-- Env Info: внешний мир -->
<g id="node21" class="node">
<title>Env Info: внешний мир</title>
<ellipse fill="none" stroke="black" cx="2136" cy="-106" rx="100.89" ry="18"/>
<text text-anchor="middle" x="2136" y="-101.8" font-family="Times,serif" font-size="14.00">Env Info: внешний мир</text>
</g>
<!-- Артефакты бенчмарков&#45;&gt;Env Info: внешний мир -->
<g id="edge18" class="edge">
<title>Артефакты бенчмарков-&gt;Env Info: внешний мир</title>
<path fill="none" stroke="black" d="M1958.12,-176.35C1980.24,-171.1 2004.94,-164.48 2027,-156.8 2049.65,-148.91 2074.01,-138.03 2093.94,-128.45"/>
<polygon fill="black" stroke="black" points="2095.4,-131.63 2102.86,-124.1 2092.33,-125.34 2095.4,-131.63"/>
</g>
<!-- LLM → Генерация идей -->
<g id="node24" class="node">
<title>LLM → Генерация идей</title>
<ellipse fill="none" stroke="black" cx="363" cy="-34" rx="108.68" ry="18"/>
<text text-anchor="middle" x="363" y="-29.8" font-family="Times,serif" font-size="14.00">LLM → Генерация идей</text>
</g>
<!-- AlphaEvolve&#45;&gt;LLM → Генерация идей -->
<g id="edge21" class="edge">
<title>AlphaEvolve-&gt;LLM → Генерация идей</title>
<path fill="none" stroke="black" d="M586.14,-93.28C543.7,-82.2 479.43,-65.41 430.75,-52.69"/>
<polygon fill="black" stroke="black" points="431.7,-49.33 421.14,-50.18 429.93,-56.1 431.7,-49.33"/>
</g>
<!-- Символьный движок → Проверка -->
<g id="node25" class="node">
<title>Символьный движок → Проверка</title>
<ellipse fill="none" stroke="black" cx="631" cy="-34" rx="141.41" ry="18"/>
<text text-anchor="middle" x="631" y="-29.8" font-family="Times,serif" font-size="14.00">Символьный движок → Проверка</text>
</g>
<!-- AlphaEvolve&#45;&gt;Символьный движок → Проверка -->
<g id="edge22" class="edge">
<title>AlphaEvolve-&gt;Символьный движок → Проверка</title>
<path fill="none" stroke="black" d="M631,-87.7C631,-80.41 631,-71.73 631,-63.54"/>
<polygon fill="black" stroke="black" points="634.5,-63.62 631,-53.62 627.5,-63.62 634.5,-63.62"/>
</g>
<!-- RL → Эволюция гипотез -->
<g id="node26" class="node">
<title>RL → Эволюция гипотез</title>
<ellipse fill="none" stroke="black" cx="126" cy="-34" rx="110.29" ry="18"/>
<text text-anchor="middle" x="126" y="-29.8" font-family="Times,serif" font-size="14.00">RL → Эволюция гипотез</text>
</g>
<!-- AlphaEvolve&#45;&gt;RL → Эволюция гипотез -->
<g id="edge23" class="edge">
<title>AlphaEvolve-&gt;RL → Эволюция гипотез</title>
<path fill="none" stroke="black" d="M575.7,-97.5C500.74,-87.32 362.73,-68.49 245,-52 236.35,-50.79 227.35,-49.52 218.35,-48.24"/>
<polygon fill="black" stroke="black" points="218.86,-44.78 208.47,-46.84 217.87,-51.71 218.86,-44.78"/>
</g>
<!-- Самомодификация кода -->
<g id="node27" class="node">
<title>Самомодификация кода</title>
<ellipse fill="none" stroke="black" cx="896" cy="-34" rx="105.19" ry="18"/>
<text text-anchor="middle" x="896" y="-29.8" font-family="Times,serif" font-size="14.00">Самомодификация кода</text>
</g>
<!-- Darwin Godel Machine&#45;&gt;Самомодификация кода -->
<g id="edge24" class="edge">
<title>Darwin Godel Machine-&gt;Самомодификация кода</title>
<path fill="none" stroke="black" d="M1097.23,-90.24C1057.53,-79.34 1003.29,-64.45 961.13,-52.88"/>
<polygon fill="black" stroke="black" points="962.16,-49.53 951.59,-50.26 960.31,-56.28 962.16,-49.53"/>
</g>
<!-- Тестирование на бенчмарках -->
<g id="node28" class="node">
<title>Тестирование на бенчмарках</title>
<ellipse fill="none" stroke="black" cx="1151" cy="-34" rx="131.75" ry="18"/>
<text text-anchor="middle" x="1151" y="-29.8" font-family="Times,serif" font-size="14.00">Тестирование на бенчмарках</text>
</g>
<!-- Darwin Godel Machine&#45;&gt;Тестирование на бенчмарках -->
<g id="edge25" class="edge">
<title>Darwin Godel Machine-&gt;Тестирование на бенчмарках</title>
<path fill="none" stroke="black" d="M1151,-87.7C1151,-80.41 1151,-71.73 1151,-63.54"/>
<polygon fill="black" stroke="black" points="1154.5,-63.62 1151,-53.62 1147.5,-63.62 1154.5,-63.62"/>
</g>
</g>
</svg>